<svg width="24" height="24" viewBox="0 0 24 24" fill="none" xmlns="http://www.w3.org/2000/svg">
<path d="M20.1309 1.50348C19.0247 1.80958 10.4958 4.2602 8.38687 4.85176C8.34766 4.86276 8.31309 4.88623 8.28839 4.91862C8.26369 4.95101 8.25022 4.99056 8.25 5.03129V16.6094C8.25005 16.6288 8.24409 16.6478 8.23292 16.6636C8.22175 16.6795 8.20594 16.6915 8.18766 16.698L6.88219 17.1457C5.99156 17.4944 3.75 17.9275 3.75 19.9202C3.75 21.5861 4.90453 22.3361 5.89969 22.4646C6.0206 22.4863 6.14298 22.4988 6.26578 22.5021C6.61125 22.5021 7.97109 22.1702 8.76422 21.6546C9.75 21.0119 9.75 21.0002 9.75 19.3127V9.46895C9.75 9.42676 9.77906 9.42958 9.81937 9.41879L18.6319 6.98504C18.6461 6.98113 18.661 6.98062 18.6754 6.98354C18.6898 6.98647 18.7034 6.99275 18.7149 7.00188C18.7265 7.01101 18.7357 7.02273 18.7419 7.03609C18.7481 7.04945 18.751 7.06408 18.7505 7.07879V14.3697C18.7504 14.3893 18.7442 14.4084 18.7328 14.4243C18.7214 14.4402 18.7053 14.4521 18.6867 14.4583C18.2695 14.599 17.7853 14.763 17.4455 14.8858C16.0027 15.4071 14.25 15.7338 14.25 17.6252C14.25 19.4304 15.5747 20.1836 16.4203 20.2422C16.7543 20.2675 17.09 20.2518 17.4202 20.1954C17.842 20.1307 18.5494 19.9188 19.208 19.4988C20.25 18.8341 20.25 18.821 20.25 16.8752V1.59395C20.25 1.57946 20.2467 1.56516 20.2403 1.55218C20.2339 1.53919 20.2245 1.52787 20.213 1.5191C20.2014 1.51034 20.188 1.50437 20.1738 1.50166C20.1596 1.49894 20.1449 1.49957 20.1309 1.50348Z" fill="#191919"/>
</svg>
